# xmcd
#
# Track frame offsets:
#  150
#  18376
#  38261
#  52602
#  63625
#  73515
#  93771
#  113958
#  133963
#  147354
#  182774
#  201180
#  205781
#  219749
#  235221
#  254065
#  268166
#  285810
#  301314
#  317961
#
# Disc length: 4493 seconds
#
# Revision: 0
# Processed by: cddbd v1.5.1PL0 Copyright (c) Steve Scherf et al.
# Submitted via: Collectorz.com Music Collector 6.9
#
DISCID=2a118b14
DTITLE=Various Artist - Honky Tonk 11
DYEAR=1900
DGENRE=
TTITLE0=Greg Brown - People Hide Their Love
TTITLE1=Greg Brown and Ferron - Tequila And Me (Remembering Kate Wolf)
TTITLE2=Greg Brown and Bill Morrissey - Ain't Life a Brook
TTITLE3=Greg Brown and Bill Morrissey - Duncan And Brady
TTITLE4=Greg Brown and Bill Morrissey - I'll Never Get Out of This World Alive
TTITLE5=Bob Dylan and Willie Nelson - Heartland
TTITLE6=B.B. King and willie Nelson - Night Life
TTITLE7=Willie Nelson - Angel Flying Too Close
TTITLE8=Johnny Cash - Chicken in Black
TTITLE9=Counting Crows - Rain King (with Thunder Road Lyrics)
TTITLE10=Enrique Iglesias - Sad Eyes
TTITLE11=Robin Williams - I'm on Fire (Elmer Fudd)
TTITLE12=Tori Amos - I'm on Fire
TTITLE13=Ronnie Spector - Dangerous
TTITLE14=Ronnie Spector - Who Can Sleep
TTITLE15=Ronnie Spector and the E Street Band - Say Goodbye To Hollywood
TTITLE16=Ronnie Spector and the E Street Band - Baby Please Don't Go
TTITLE17=Ronnie Spector and Eddie Money - Take Me Home Tonight (Be My Baby)
TTITLE18=Ronnie Spector and Southside Johnny - You Mean So Much To Me Baby
TTITLE19=Ronnie Spector and Southside Johnny - You Mean So Much To Me Baby
EXTD=
EXTT0=
EXTT1=
EXTT2=
EXTT3=
EXTT4=
EXTT5=
EXTT6=
EXTT7=
EXTT8=
EXTT9=
EXTT10=
EXTT11=
EXTT12=
EXTT13=
EXTT14=
EXTT15=
EXTT16=
EXTT17=
EXTT18=
EXTT19=
PLAYORDER=
